<svg xmlns="http://www.w3.org/2000/svg" xmlns:xlink="http://www.w3.org/1999/xlink" version="1.1" preserveAspectRatio="none" x="0px" y="0px" viewBox="0 0 100 125"><defs><g id="a"><path stroke="none" d=" M 78.35 21.55 Q 66.591015625 9.796484375 50 9.8 33.3599609375 9.798828125 21.55 21.55 9.798828125 33.3599609375 9.8 50 9.796484375 66.591015625 21.55 78.35 33.3595703125 90.1541015625 50 90.15 66.5912109375 90.1568359375 78.35 78.35 90.1568359375 66.5912109375 90.15 50 90.1541015625 33.3595703125 78.35 21.55 M 41.2 39.9 L 41.15 39.95 Q 41.1099609375 39.975390625 41.05 39.95 L 41.2 39.9 M 42 42.05 L 42.05 42 Q 45.348046875 38.7755859375 50 38.75 54.6384765625 38.7796875 57.9 42.05 61.2201171875 45.361328125 61.2 50 61.2201171875 54.6384765625 57.9 57.9 54.6384765625 61.2201171875 50 61.2 45.361328125 61.2201171875 42.05 57.9 38.7796875 54.6384765625 38.75 50 38.7755859375 45.348046875 42 42.05 M 41.2 42.35 Q 41.2361328125 42.3751953125 41.25 42.35 L 41.15 42.4 41.2 42.35 M 15.35 52.5 L 36.5 52.5 Q 37.2349609375 56.578125 40.3 59.65 44.3384765625 63.6796875 50 63.65 55.661328125 63.6796875 59.65 59.65 62.76484375 56.578125 63.45 52.5 L 84.55 52.5 Q 83.7408203125 65.2060546875 74.45 74.45 64.3083984375 84.6431640625 50 84.65 35.640234375 84.645703125 25.45 74.45 16.2015625 65.206640625 15.35 52.5 M 55.3 44.6 Q 53.1345703125 42.4419921875 50 42.45 46.8751953125 42.4501953125 44.65 44.6 L 44.6 44.65 Q 42.4501953125 46.8751953125 42.45 50 42.4419921875 53.1345703125 44.6 55.3 46.8591796875 57.5517578125 50 57.55 53.1203125 57.5474609375 55.3 55.3 L 55.3 55.3 Q 57.5474609375 53.1203125 57.55 50 57.5517578125 46.8591796875 55.3 44.6 Z"/></g></defs><g transform="matrix( 1, 0, 0, 1, 0,0) "><use xlink:href="#a"/></g></svg>